<svg width="41" height="40" viewBox="0 0 41 40" fill="none" xmlns="http://www.w3.org/2000/svg">
<g clip-path="url(#clip0_53272_4995)">
<path fill-rule="evenodd" clip-rule="evenodd" d="M7.47487 5.40398C7.47487 5.00398 7.77487 4.70398 8.17487 4.70398C8.47487 4.70398 8.77487 5.00398 8.87488 5.40398V12.304C8.87488 13.404 8.17487 14.304 7.17487 14.604H7.07487V33.704C7.07487 35.004 5.97487 36.104 4.67487 36.104C3.37487 36.104 2.27487 35.004 2.27487 33.704V14.604H2.17487C1.27487 14.204 0.574875 13.304 0.574875 12.304V5.40398C0.574875 5.00398 0.874875 4.70398 1.27487 4.70398C1.67487 4.70398 1.97487 5.00398 1.97487 5.40398V12.304C1.97487 12.904 2.47487 13.304 2.97487 13.304H3.97487V5.40398C3.97487 5.00398 4.27487 4.70398 4.67487 4.70398C5.07487 4.70398 5.37488 5.00398 5.37488 5.40398V13.304H6.47487C6.97487 13.304 7.47487 12.904 7.47487 12.304V5.40398ZM4.77487 34.704C5.27487 34.704 5.77487 34.304 5.77487 33.704H5.87488V14.704H3.77487V33.704C3.77487 34.204 4.27487 34.704 4.77487 34.704ZM34.7751 9.60398C34.7751 6.90398 36.9751 4.70398 39.6751 4.70398C40.0751 4.70398 40.3751 5.00398 40.3751 5.40398V33.704C40.3751 35.004 39.2751 36.104 37.9751 36.104C36.6751 36.104 35.5751 35.004 35.5751 33.704V24.204H35.4751C35.0751 24.204 34.7751 23.904 34.7751 23.504V9.60398ZM37.9751 34.704C38.4751 34.704 38.9751 34.304 38.9751 33.704H39.0751V24.204H36.9751V33.704C36.9751 34.204 37.3751 34.704 37.9751 34.704ZM36.0751 22.804H38.8751V6.20398H38.7751C37.1751 6.50398 36.0751 8.00398 36.0751 9.60398V22.804ZM8.87468 20.404C8.87468 13.704 14.2747 8.30399 20.9747 8.30399C27.5747 8.30399 33.0747 13.704 33.0747 20.404C33.0747 27.104 27.6747 32.504 20.9747 32.504C14.2747 32.504 8.87468 27.104 8.87468 20.404ZM10.2747 20.404C10.2747 26.304 15.0747 31.104 20.9747 31.104C26.8747 31.104 31.6747 26.304 31.6747 20.404C31.6747 14.504 26.8747 9.70399 20.9747 9.70399C15.0747 9.70399 10.1747 14.504 10.2747 20.404ZM20.9751 11.704C16.1751 11.704 12.2751 15.604 12.2751 20.404C12.2751 25.204 16.1751 29.104 20.9751 29.104C25.7751 29.104 29.6751 25.204 29.6751 20.404C29.5751 15.604 25.6751 11.704 20.9751 11.704ZM20.9751 27.804C16.8751 27.804 13.5751 24.504 13.5751 20.404C13.5751 16.304 16.8751 13.004 20.9751 13.004C25.0751 13.004 28.3751 16.304 28.3751 20.404C28.3751 24.504 25.0751 27.804 20.9751 27.804Z" fill="#231F20"/>
</g>
<defs>
<clipPath id="clip0_53272_4995">
<rect width="39.8" height="31.4" fill="white" transform="translate(0.574875 4.70398)"/>
</clipPath>
</defs>
</svg>
