<svg width="41" height="41" viewBox="0 0 41 41" fill="none" xmlns="http://www.w3.org/2000/svg">
<g clip-path="url(#clip0_53272_5114)">
<path d="M27.7274 18.704C28.0032 18.7775 28.295 18.763 28.5621 18.6626C28.8292 18.5622 29.0583 18.3809 29.2174 18.144L29.9674 17.024L30.0574 18.374C30.0781 18.6556 30.1852 18.924 30.3642 19.1424C30.5432 19.3608 30.7854 19.5185 31.0574 19.594L36.8474 21.144C37.1222 21.2155 37.4124 21.2011 37.6787 21.1028C37.9451 21.0044 38.175 20.8269 38.3374 20.594L40.0374 18.044C40.1073 17.9486 40.1426 17.8322 40.1374 17.714C40.1581 15.029 39.4681 12.3862 38.1374 10.054C38.0774 9.934 38.0074 9.824 37.9374 9.704L37.6274 9.204C37.5174 9.034 37.4074 8.864 37.2874 8.704L36.9074 8.194C36.3447 7.46997 35.7153 6.80036 35.0274 6.194C35.0305 6.16742 35.0305 6.14058 35.0274 6.114L34.7874 5.924L34.4374 5.604C34.2774 5.474 34.1074 5.354 33.9374 5.234L33.8274 5.154C32.5756 4.26044 31.1969 3.55934 29.7374 3.074L30.3074 1.484C30.3377 1.41001 30.3527 1.33063 30.3513 1.25068C30.35 1.17074 30.3324 1.0919 30.2997 1.01895C30.267 0.945998 30.2198 0.880464 30.1609 0.826324C30.1021 0.772184 30.0329 0.730568 29.9574 0.704003C29.8846 0.677244 29.8072 0.66536 29.7297 0.669054C29.6523 0.672749 29.5763 0.691947 29.5064 0.725513C29.4364 0.759078 29.374 0.80633 29.3226 0.86447C29.2713 0.922611 29.2321 0.990461 29.2074 1.064L28.6174 2.704C25.3731 1.9108 21.958 2.20534 18.8974 3.54234C15.8367 4.87933 13.3001 7.18473 11.6774 10.104C11.6171 10.2067 11.5892 10.3252 11.5974 10.444L11.7974 13.444C11.8146 13.7278 11.9203 13.9991 12.0997 14.2198C12.2791 14.4404 12.5231 14.5993 12.7974 14.674L18.5774 16.224C18.8519 16.3061 19.1452 16.3001 19.4161 16.2068C19.6869 16.1135 19.9217 15.9377 20.0874 15.704L20.8374 14.584L20.9274 15.934C20.9475 16.2169 21.0543 16.4868 21.2332 16.7069C21.4121 16.927 21.6546 17.0866 21.9274 17.164L24.2574 17.784L20.9874 30.024H15.8774H8.27744C7.75366 30.0186 7.23413 30.1185 6.74971 30.3178C6.26528 30.517 5.82583 30.8116 5.45745 31.184C5.03642 31.6627 4.71518 32.2206 4.51255 32.825C4.30993 33.4295 4.23 34.0683 4.27745 34.704C4.27745 34.9215 4.36384 35.1301 4.51762 35.2838C4.6714 35.4376 4.87997 35.524 5.09745 35.524H6.53745L5.29745 38.214C5.10882 38.63 5.08734 39.1026 5.23745 39.534H2.12745C2.05044 39.5327 1.97394 39.5467 1.90242 39.5752C1.83089 39.6038 1.76576 39.6463 1.71084 39.7003C1.65592 39.7543 1.6123 39.8187 1.58253 39.8897C1.55276 39.9607 1.53743 40.037 1.53745 40.114C1.53745 40.2705 1.59961 40.4206 1.71025 40.5312C1.8209 40.6418 1.97097 40.704 2.12745 40.704H38.1774C38.3339 40.704 38.484 40.6418 38.5946 40.5312C38.7053 40.4206 38.7674 40.2705 38.7674 40.114C38.7675 40.037 38.7521 39.9607 38.7224 39.8897C38.6926 39.8187 38.649 39.7543 38.594 39.7003C38.5391 39.6463 38.474 39.6038 38.4025 39.5752C38.3309 39.5467 38.2544 39.5327 38.1774 39.534H32.6774C32.8307 39.1039 32.8128 38.6313 32.6274 38.214L30.7674 34.134L38.4474 26.394C38.5443 26.2944 38.6142 26.1718 38.6507 26.0378C38.6872 25.9037 38.6891 25.7626 38.6561 25.6277C38.6231 25.4927 38.5564 25.3684 38.4621 25.2663C38.3679 25.1642 38.2493 25.0877 38.1174 25.044L36.3274 24.444C35.5489 24.1863 34.7138 24.1518 33.9167 24.3445C33.1196 24.5371 32.3924 24.9492 31.8174 25.534L27.6874 29.704C27.5028 29.8924 27.2512 30.0002 26.9874 30.004H22.2074L25.3974 18.074L27.7274 18.704ZM31.5374 8.564C31.4891 7.34216 31.3756 6.12376 31.1974 4.914C31.8082 5.20299 32.3965 5.53725 32.9574 5.914C33.1638 6.0435 33.361 6.18718 33.5474 6.344L33.6374 6.404L34.1974 6.884L34.2674 6.944C34.9681 7.57206 35.6077 8.26516 36.1774 9.014C36.477 9.39327 36.7477 9.79438 36.9874 10.214C37.1174 10.414 37.2374 10.624 37.3574 10.834C38.3592 12.7179 38.9265 14.8022 39.0174 16.934L31.1474 14.824C31.4745 12.7543 31.605 10.6583 31.5374 8.564ZM38.6674 18.094L37.4174 19.954C37.3955 19.9879 37.3633 20.014 37.3255 20.0284C37.2878 20.0428 37.2464 20.0447 37.2074 20.034L31.4274 18.484C31.3882 18.4742 31.3528 18.4527 31.326 18.4223C31.2992 18.392 31.2823 18.3542 31.2774 18.314L31.1274 16.074L38.6674 18.094ZM6.89745 39.534C6.81368 39.5344 6.73116 39.5138 6.65744 39.474C6.58678 39.4438 6.52296 39.3996 6.46982 39.344C6.41668 39.2885 6.37532 39.2228 6.34823 39.1508C6.32114 39.0789 6.30888 39.0023 6.31218 38.9255C6.31548 38.8487 6.33428 38.7733 6.36744 38.704L7.79745 35.554H9.08745L7.42744 39.184C7.38271 39.2876 7.30875 39.3758 7.21461 39.438C7.12048 39.5002 7.01025 39.5335 6.89745 39.534ZM18.4474 39.534H8.53745L10.3474 35.534H19.5374L18.4474 39.534ZM19.6574 39.534L20.7274 35.534H27.5374L29.3474 39.534H19.6574ZM31.5374 38.704C31.5989 38.8448 31.603 39.0041 31.5488 39.1479C31.4947 39.2917 31.3865 39.4087 31.2474 39.474C31.1733 39.5127 31.0911 39.5332 31.0074 39.534C30.8938 39.5318 30.783 39.4978 30.6875 39.436C30.5921 39.3742 30.5159 39.2869 30.4674 39.184L28.7774 35.474C29.163 35.3829 29.5266 35.2164 29.8474 34.984L31.5374 38.704ZM26.9574 31.214C27.2508 31.2165 27.5418 31.1603 27.8131 31.0486C28.0845 30.937 28.3307 30.7722 28.5374 30.564L32.6574 26.354C33.0812 25.9276 33.6149 25.627 34.1993 25.4858C34.7836 25.3446 35.3957 25.3682 35.9674 25.554L37.2174 25.974L29.3874 33.864C29.2253 34.0282 29.0322 34.1586 28.8194 34.2478C28.6066 34.3371 28.3782 34.3834 28.1474 34.384H5.45745C5.41057 33.9484 5.45969 33.5077 5.60135 33.0931C5.74302 32.6785 5.97379 32.2999 6.27744 31.984C6.5405 31.7225 6.85257 31.5155 7.19576 31.3748C7.53895 31.2341 7.90653 31.1624 8.27744 31.164H15.5374L26.9574 31.214ZM29.8574 4.364C30.099 5.76588 30.246 7.18241 30.2974 8.604C30.3685 10.6105 30.2513 12.6193 29.9474 14.604L22.0574 12.484C23.2836 9.19964 25.1845 6.20869 27.6374 3.704C28.4017 3.85937 29.1511 4.08019 29.8774 4.364H29.8574ZM19.1174 15.064C19.0938 15.0988 19.0599 15.1252 19.0204 15.1396C18.9809 15.1539 18.9379 15.1555 18.8974 15.144L13.1174 13.594C13.0767 13.5836 13.0403 13.5606 13.0133 13.5283C12.9864 13.496 12.9703 13.456 12.9674 13.414L12.8174 11.184L20.3674 13.184L19.1174 15.064ZM20.9374 12.144L13.0774 10.034C14.4583 7.84893 16.4136 6.08581 18.7295 4.93761C21.0453 3.7894 23.6323 3.30036 26.2074 3.524C25.2996 4.52066 24.4673 5.58361 23.7174 6.704C22.5873 8.40593 21.6546 10.231 20.9374 12.144ZM22.2474 16.044C22.2086 16.0302 22.1742 16.0062 22.1478 15.9745C22.1214 15.9429 22.104 15.9047 22.0974 15.864L21.9474 13.624L29.4974 15.624L28.2474 17.494C28.2229 17.5277 28.1888 17.5533 28.1496 17.5675C28.1104 17.5817 28.0679 17.584 28.0274 17.574L22.2474 16.044Z" fill="black"/>
</g>
<defs>
<clipPath id="clip0_53272_5114">
<rect width="38.61" height="40" fill="white" transform="translate(1.53745 0.703979)"/>
</clipPath>
</defs>
</svg>
