<svg width="25" height="24" viewBox="0 0 25 24" fill="none" xmlns="http://www.w3.org/2000/svg">
<path d="M12.25 11.75C12.7333 11.75 13.146 11.5793 13.488 11.238C13.8293 10.896 14 10.4833 14 10C14 9.51667 13.8293 9.104 13.488 8.762C13.146 8.42067 12.7333 8.25 12.25 8.25C11.7667 8.25 11.354 8.42067 11.012 8.762C10.6707 9.104 10.5 9.51667 10.5 10C10.5 10.4833 10.6707 10.896 11.012 11.238C11.354 11.5793 11.7667 11.75 12.25 11.75ZM12.25 19.8C14.3167 17.9667 15.875 16.2123 16.925 14.537C17.975 12.8623 18.5 11.4167 18.5 10.2C18.5 8.3 17.896 6.75 16.688 5.55C15.4793 4.35 14 3.75 12.25 3.75C10.5 3.75 9.02067 4.35 7.812 5.55C6.604 6.75 6 8.3 6 10.2C6 11.4167 6.525 12.8623 7.575 14.537C8.625 16.2123 10.1833 17.9667 12.25 19.8ZM12.25 21.8C9.65 19.5333 7.70833 17.4333 6.425 15.5C5.14167 13.5667 4.5 11.8 4.5 10.2C4.5 7.78333 5.27933 5.854 6.838 4.412C8.396 2.97067 10.2 2.25 12.25 2.25C14.3 2.25 16.1043 2.97067 17.663 4.412C19.221 5.854 20 7.78333 20 10.2C20 11.8 19.3583 13.5667 18.075 15.5C16.7917 17.4333 14.85 19.5333 12.25 21.8Z" fill="#1C1B1F"/>
</svg>
