<svg width="41" height="40" viewBox="0 0 41 40" fill="none" xmlns="http://www.w3.org/2000/svg">
<path d="M19.0478 5C18.1442 5 17.3999 5.75074 17.3999 6.6544V7.31253C17.3999 8.21622 18.1442 8.96556 19.0478 8.96556H20.0428V11.6278C14.5933 11.8119 10.7625 14.2519 8.35768 17.5252C5.88955 20.8846 4.87668 25.0692 4.85022 28.6412C4.44458 29.0061 4.18176 29.5283 4.18176 30.1097C4.18176 31.1964 5.0811 32.0893 6.16778 32.0893H35.2353C36.322 32.0893 37.2213 31.1964 37.2213 30.1097C37.2213 29.5283 36.9585 29.0061 36.5529 28.6412C36.5264 25.0692 35.5135 20.8847 33.0454 17.5252C30.6414 14.253 26.812 11.813 21.3655 11.6278V8.96556H22.3553C23.2589 8.96556 24.0032 8.21622 24.0032 7.31253V6.6544C24.0032 5.75074 23.2589 5 22.3553 5H19.0478ZM19.0478 6.32274H22.3553C22.5497 6.32274 22.6869 6.46009 22.6869 6.6544V7.31253C22.6869 7.50706 22.5497 7.64419 22.3553 7.64419H19.0478C18.8534 7.64419 18.7213 7.50709 18.7213 7.31253V6.6544C18.7213 6.45987 18.8534 6.32274 19.0478 6.32274ZM20.7009 12.9311C26.1295 12.931 29.6892 15.1954 31.9782 18.311C34.1246 21.2326 35.024 24.9097 35.1385 28.1237H6.26456C6.37903 24.9097 7.27852 21.2325 9.42489 18.311C11.7138 15.1955 15.2723 12.9313 20.7009 12.9311ZM20.6969 14.2474C20.6822 14.2486 20.6676 14.2503 20.653 14.2524C14.6243 14.7099 10.8974 18.3434 8.87374 22.5539C8.83036 22.6327 8.80351 22.7194 8.79483 22.8089C8.78616 22.8984 8.79584 22.9887 8.82328 23.0743C8.85072 23.16 8.89535 23.2392 8.95443 23.3069C9.01351 23.3747 9.0858 23.4297 9.16688 23.4686C9.24796 23.5074 9.33612 23.5293 9.42596 23.533C9.5158 23.5366 9.60544 23.5218 9.68937 23.4896C9.77331 23.4574 9.84979 23.4083 9.91413 23.3455C9.97847 23.2827 10.0293 23.2074 10.0635 23.1243C11.9467 19.2061 15.1977 15.9913 20.7498 15.57C20.9221 15.5589 21.0833 15.4809 21.1989 15.3526C21.3145 15.2244 21.3753 15.056 21.3684 14.8834C21.3615 14.7109 21.2874 14.5479 21.1619 14.4292C21.0365 14.3106 20.8696 14.2458 20.6969 14.2485L20.6969 14.2474ZM6.16775 29.4464H35.2353C35.6128 29.4464 35.8999 29.7323 35.8999 30.1097C35.8999 30.4872 35.6128 30.7679 35.2353 30.7679H6.16778C5.79031 30.7679 5.50319 30.4872 5.50319 30.1097C5.50319 29.7323 5.79032 29.4464 6.16778 29.4464H6.16775ZM2.86547 34.0688C2.69007 34.0688 2.52185 34.1385 2.39782 34.2625C2.27379 34.3866 2.20411 34.5548 2.20411 34.7302C2.20411 34.9056 2.27379 35.0738 2.39782 35.1978C2.52185 35.3219 2.69007 35.3915 2.86547 35.3915H38.5427C38.7181 35.3915 38.8864 35.3219 39.0104 35.1978C39.1344 35.0738 39.2041 34.9056 39.2041 34.7302C39.2041 34.5548 39.1344 34.3866 39.0104 34.2625C38.8864 34.1385 38.7181 34.0688 38.5427 34.0688H2.86547Z" fill="black"/>
</svg>
