<svg width="41" height="40" viewBox="0 0 41 40" fill="none" xmlns="http://www.w3.org/2000/svg">
<path d="M40.353 26.6575C38.7404 24.7043 36.825 23.0223 34.6798 21.6756C35.8811 18.5512 36.4479 15.2187 36.3471 11.8727C36.3381 11.7032 36.2667 11.5431 36.1467 11.423C36.0268 11.3029 35.8667 11.2314 35.6972 11.2222C32.5598 11.1357 29.4336 11.6324 26.4775 12.687C25.0742 10.0825 23.1932 7.76529 20.9328 5.85651C20.81 5.75779 20.6572 5.70398 20.4997 5.70398C20.3422 5.70398 20.1894 5.75779 20.0667 5.85651C17.8063 7.76529 15.9253 10.0825 14.5219 12.687C11.566 11.6323 8.44004 11.1355 5.30282 11.2219C5.13334 11.2311 4.97323 11.3026 4.85327 11.4227C4.73331 11.5428 4.66195 11.703 4.65289 11.8725C4.55204 15.2185 5.11889 18.5511 6.32033 21.6756C4.17501 23.0224 2.25957 24.7045 0.646997 26.6579C0.551769 26.779 0.500004 26.9287 0.500004 27.0828C0.500004 27.2369 0.551769 27.3866 0.646997 27.5078C0.87596 27.7997 6.33322 34.6686 13.2587 34.6686C16.0541 34.6686 18.5605 33.3175 20.5 32.045C22.4395 33.3175 24.9459 34.6686 27.7413 34.6686C34.6668 34.6686 40.1241 27.7997 40.353 27.5074C40.4482 27.3862 40.5 27.2366 40.5 27.0825C40.5 26.9283 40.4482 26.7787 40.353 26.6575ZM34.98 12.5887C34.9705 14.7162 34.5974 21.6471 30.3572 25.8989C28.2198 27.915 25.5987 29.346 22.747 30.0536C24.869 27.8357 28.0861 23.6719 28.0861 18.8067C28.067 17.1321 27.7174 15.4778 27.0574 13.9387C29.6061 13.0561 32.2828 12.5999 34.98 12.5884V12.5887ZM20.5 7.30691C21.975 8.63973 26.7069 13.344 26.7069 18.8067C26.7069 24.2693 21.975 28.9736 20.5 30.3064C19.0251 28.9736 14.2932 24.2693 14.2932 18.8067C14.2932 13.344 19.0251 8.63973 20.5 7.30691ZM13.9426 13.9387C13.2826 15.4778 12.933 17.1321 12.9139 18.8067C12.9139 23.6719 16.1311 27.8356 18.2531 30.0532C15.4016 29.3458 12.7807 27.9151 10.6435 25.8992C6.4026 21.6474 6.02978 14.716 6.02006 12.5884C8.71718 12.5999 11.3939 13.0561 13.9426 13.9387ZM2.09161 27.0818C3.49381 25.4888 5.11008 24.0979 6.89426 22.9488C7.60076 24.3983 8.53736 25.7237 9.66768 26.8737C12.1676 29.2416 15.2753 30.8698 18.6453 31.5771C17.0306 32.6097 15.1732 33.2001 13.2587 33.2893C7.94838 33.2893 3.37601 28.546 2.09161 27.0818ZM27.7413 33.2893C25.8269 33.2001 23.9694 32.6097 22.3547 31.5773C25.725 30.8697 28.8329 29.2413 31.333 26.873C32.4631 25.7233 33.3995 24.3981 34.1059 22.9489C35.8896 24.0988 37.5057 25.4899 38.9084 27.0825C37.6261 28.5473 33.0618 33.2893 27.7413 33.2893Z" fill="black"/>
</svg>
