<svg width="41" height="40" viewBox="0 0 41 40" fill="none" xmlns="http://www.w3.org/2000/svg">
<path fill-rule="evenodd" clip-rule="evenodd" d="M15.7101 27.4784C15.0726 27.4784 14.5558 27.9952 14.5558 28.6327V32.0955C14.5558 32.733 15.0726 33.2498 15.7101 33.2498H23.7902C24.4277 33.2498 24.9445 32.733 24.9445 32.0955V28.6327C24.9445 27.9952 24.4277 27.4784 23.7902 27.4784H15.7101ZM15.8207 28.7432V31.985H23.6796V28.7432H15.8207Z" fill="black"/>
<path fill-rule="evenodd" clip-rule="evenodd" d="M10.5158 28.1573C9.55954 28.1573 8.78435 28.9325 8.78435 29.8887C8.78435 30.845 9.55954 31.6202 10.5158 31.6202H11.6701C12.6263 31.6202 13.4015 30.845 13.4015 29.8887C13.4015 28.9325 12.6263 28.1573 11.6701 28.1573H10.5158ZM11.6701 29.3167H10.5158C10.1999 29.3167 9.94381 29.5728 9.94381 29.8887C9.94381 30.2046 10.1999 30.4607 10.5158 30.4607H11.6701C11.986 30.4607 12.2421 30.2046 12.2421 29.8887C12.2421 29.5728 11.986 29.3167 11.6701 29.3167Z" fill="black"/>
<path fill-rule="evenodd" clip-rule="evenodd" d="M27.8307 28.1573C26.8745 28.1573 26.0993 28.9325 26.0993 29.8887C26.0993 30.845 26.8745 31.6202 27.8307 31.6202H28.985C29.9413 31.6202 30.7165 30.845 30.7165 29.8887C30.7165 28.9325 29.9413 28.1573 28.985 28.1573H27.8307ZM28.985 29.3167H27.8307C27.5148 29.3167 27.2587 29.5728 27.2587 29.8887C27.2587 30.2046 27.5148 30.4607 27.8307 30.4607H28.985C29.3009 30.4607 29.557 30.2046 29.557 29.8887C29.557 29.5728 29.3009 29.3167 28.985 29.3167Z" fill="black"/>
<path fill-rule="evenodd" clip-rule="evenodd" d="M12.3992 0.399994C12.0499 0.399994 11.7668 0.683143 11.7668 1.03243C11.7668 1.38171 12.0499 1.66486 12.3992 1.66486H14.0754V3.59998H7.58812C6.41104 3.59998 5.45682 4.58118 5.45682 5.79156V8.3338H5.45455V34.8722H4.81056C4.45495 34.8722 4.16667 35.1554 4.16667 35.5047C4.16667 35.8539 4.45495 36.1371 4.81056 36.1371H5.45455V36.1397H7.96304V37.2914C7.96304 38.5664 9.01535 39.6 10.3134 39.6H11.4886C12.7867 39.6 13.839 38.5664 13.839 37.2914V36.1397H26.7657V37.2914C26.7657 38.5664 27.8181 39.6 29.1161 39.6H30.2913C31.5894 39.6 32.6417 38.5664 32.6417 37.2914V36.1397H34.8345V36.1371H35.5229C35.8785 36.1371 36.1668 35.8539 36.1668 35.5047C36.1668 35.1554 35.8785 34.8722 35.5229 34.8722H34.8345V8.47628C34.836 8.45105 34.8368 8.42561 34.8368 8.39997V5.79156C34.8368 4.58118 33.8826 3.59998 32.7055 3.59998H26.7726V1.66486H28.4488C28.798 1.66486 29.0812 1.38171 29.0812 1.03243C29.0812 0.683143 28.798 0.399994 28.4488 0.399994H12.3992ZM15.3402 3.59998H25.5077V1.66486H15.3402V3.59998ZM7.58812 4.91492H32.7055C33.1764 4.91492 33.558 5.30741 33.558 5.79156V8.28503H6.7356V5.79156C6.7356 5.30741 7.11729 4.91492 7.58812 4.91492ZM6.74232 9.59998V24.5838H33.5467V9.59998H6.74232ZM6.74232 25.8623H33.5467V34.8722L6.74232 34.8722V25.8623ZM9.25081 36.1397V37.2914C9.25081 37.8679 9.72656 38.3352 10.3134 38.3352H11.4886C12.0755 38.3352 12.5513 37.8679 12.5513 37.2914V36.1397H9.25081ZM28.0535 36.1397V37.2914C28.0535 37.8679 28.5293 38.3352 29.1161 38.3352H30.2913C30.8782 38.3352 31.354 37.8679 31.354 37.2914V36.1397H28.0535Z" fill="black"/>
</svg>
