<svg width="25" height="24" viewBox="0 0 25 24" fill="none" xmlns="http://www.w3.org/2000/svg">
<path fill-rule="evenodd" clip-rule="evenodd" d="M12.125 4C9.915 4 8.125 5.79 8.125 8C8.125 10.21 9.915 12 12.125 12C14.335 12 16.125 10.21 16.125 8C16.125 5.79 14.335 4 12.125 4ZM14.125 8C14.125 6.9 13.225 6 12.125 6C11.025 6 10.125 6.9 10.125 8C10.125 9.1 11.025 10 12.125 10C13.225 10 14.125 9.1 14.125 8ZM18.125 17C17.925 16.29 14.825 15 12.125 15C9.425 15 6.325 16.29 6.125 17.01V18H18.125V17ZM4.125 17C4.125 14.34 9.455 13 12.125 13C14.795 13 20.125 14.34 20.125 17V20H4.125V17Z" fill="#241A04"/>
</svg>
